<svg xmlns="http://www.w3.org/2000/svg" width="600" height="360" viewBox="0 0 600 360" data-gate-frame-generation-version="2"><path d="M9 108 L591 108 L591 351 L9 351 Z M30.6 129.6 L30.6 329.4 L569.4 329.4 L569.4 129.6 Z" fill="#f2eadb" fill-rule="evenodd" stroke="none"/><g stroke="#202427" stroke-width="2" stroke-linecap="round" stroke-linejoin="round"><path d="M9 351 L9 108 L591 108 L591 351 Z" fill="none"/><path d="M9 287.3871 L9 108 Q22.8225 106.6145 45.375 82.2912 L300 108" fill="none"/><path d="M591 287.3871 L591 108 Q577.1775 106.6145 554.625 82.2912 L300 108" fill="none"/><path d="M9 287.3871 L9 108 Q36.645 105.229 81.75 77.5189 L300 108" fill="none"/><path d="M591 287.3871 L591 108 Q563.355 105.229 518.25 77.5189 L300 108" fill="none"/><path d="M9 287.3871 L9 108 Q50.4675 103.8435 118.125 72.7466 L300 108" fill="none"/><path d="M591 287.3871 L591 108 Q549.5325 103.8435 481.875 72.7466 L300 108" fill="none"/><path d="M9 287.3871 L9 108 Q64.29 102.458 154.5 67.9743 L300 108" fill="none"/><path d="M591 287.3871 L591 108 Q535.71 102.458 445.5 67.9743 L300 108" fill="none"/><path d="M9 287.3871 L9 108 Q78.1125 101.0725 190.875 63.202 L300 108" fill="none"/><path d="M591 287.3871 L591 108 Q521.8875 101.0725 409.125 63.202 L300 108" fill="none"/><path d="M9 287.3871 L9 108 Q91.935 99.687 227.25 58.4297 L300 108" fill="none"/><path d="M591 287.3871 L591 108 Q508.065 99.687 372.75 58.4297 L300 108" fill="none"/><path d="M9 287.3871 L9 108 Q105.7575 98.3015 263.625 53.6574 L300 108" fill="none"/><path d="M591 287.3871 L591 108 Q494.2425 98.3015 336.375 53.6574 L300 108" fill="none"/><path d="M9 108 L17.652 219.132 L29.5999 229.5 L9 351" fill="none"/><path d="M591 108 L582.348 219.132 L570.4001 229.5 L591 351" fill="none"/><path d="M300 108 L300 9 M300 9 L308 27 L300 43 L292 27 Z" fill="none"/></g></svg>