<svg xmlns="http://www.w3.org/2000/svg" width="600" height="360" viewBox="0 0 600 360" data-gate-frame-generation-version="2"><path d="M9 108 L591 108 L591 351 L9 351 Z M30.6 129.6 L30.6 329.4 L569.4 329.4 L569.4 129.6 Z" fill="#f2eadb" fill-rule="evenodd" stroke="none"/><g stroke="#202427" stroke-width="2" stroke-linecap="round" stroke-linejoin="round"><path d="M9 351 L9 108 L591 108 L591 351 Z" fill="none"/><path d="M9 108 C61.38 60.0286 160.32 41.373 300 66.6913 C352.38 82.6817 387.3 53.3659 439.68 72.0214 C480.42 88.0119 567.72 97.3397 591 108" fill="none"/><path d="M591 108 C538.62 60.0286 439.68 41.373 300 66.6913 C247.62 82.6817 212.7 53.3659 160.32 72.0214 C119.58 88.0119 32.28 97.3397 9 108" fill="none"/><path d="M55.56 108 C65.3376 86.2529 99.5592 62.6936 122.3736 75.3794 C143.5584 84.4407 137.04 99.8448 117.4848 95.3142 C101.1888 90.7836 104.448 81.7223 115.0404 85.3468" fill="none"/><path d="M544.44 108 C534.6624 86.2529 500.4408 62.6936 477.6264 75.3794 C456.4416 84.4407 462.96 99.8448 482.5152 95.3142 C498.8112 90.7836 495.552 81.7223 484.9596 85.3468" fill="none"/><path d="M81.3875 108 Q71.2025 94.0316 81.3875 87.0631" fill="none"/><path d="M518.6125 108 Q528.7975 94.0316 518.6125 87.0631" fill="none"/><path d="M118.6355 108 Q128.8205 91.6437 118.6355 82.2873" fill="none"/><path d="M481.3645 108 Q471.1795 91.6437 481.3645 82.2873" fill="none"/><path d="M155.8835 108 Q145.6985 89.2558 155.8835 77.5115" fill="none"/><path d="M444.1165 108 Q454.3015 89.2558 444.1165 77.5115" fill="none"/><path d="M193.1315 108 Q203.3165 86.8679 193.1315 72.7357" fill="none"/><path d="M406.8685 108 Q396.6835 86.8679 406.8685 72.7357" fill="none"/><path d="M81.3875 87.0631 Q71.2025 80.0631 81.3875 73.0631 Q91.5725 80.0631 81.3875 87.0631 Z" fill="none"/><path d="M518.6125 87.0631 Q528.7975 80.0631 518.6125 73.0631 Q508.4275 80.0631 518.6125 87.0631 Z" fill="none"/><path d="M118.6355 82.2873 Q108.4505 75.2873 118.6355 68.2873 Q128.8205 75.2873 118.6355 82.2873 Z" fill="none"/><path d="M481.3645 82.2873 Q491.5495 75.2873 481.3645 68.2873 Q471.1795 75.2873 481.3645 82.2873 Z" fill="none"/><path d="M155.8835 77.5115 Q145.6985 70.5115 155.8835 63.5115 Q166.0685 70.5115 155.8835 77.5115 Z" fill="none"/><path d="M444.1165 77.5115 Q454.3015 70.5115 444.1165 63.5115 Q433.9315 70.5115 444.1165 77.5115 Z" fill="none"/><path d="M193.1315 72.7357 Q182.9465 65.7357 193.1315 58.7357 Q203.3165 65.7357 193.1315 72.7357 Z" fill="none"/><path d="M406.8685 72.7357 Q417.0535 65.7357 406.8685 58.7357 Q396.6835 65.7357 406.8685 72.7357 Z" fill="none"/><path d="M9 351 Q29.5999 229.5 9 108 L23.8319 229.5" fill="none"/><path d="M591 351 Q570.4001 229.5 591 108 L576.1681 229.5" fill="none"/><path d="M300 108 L300 94.5162 M300 94.5162 C295.9099 88.2238 287.3792 73.3916 282.4711 80.1335 C282.1205 86.4259 285.3925 92.7184 288.314 94.5162 M300 94.5162 C304.0901 88.2238 312.6208 73.3916 317.5289 80.1335 C317.8795 86.4259 314.6075 92.7184 311.686 94.5162 M288.314 94.5162 L311.686 94.5162 M288.314 94.5162 C283.37 98.5613 283.37 103.9549 300 108 M311.686 94.5162 C316.63 98.5613 316.63 103.9549 300 108 M300 94.5162 C291.9097 86.4259 291.9097 70.2454 300 63.054 C308.0903 70.2454 308.0903 86.4259 300 94.5162 Z" fill="none"/></g></svg>