<svg xmlns="http://www.w3.org/2000/svg" width="344" height="236" viewBox="0 0 344 236" data-gate-frame-generation-version="3"><path d="M9 70.8 L335 70.8 L335 227 L9 227 Z M23.16 84.96 L23.16 212.84 L320.84 212.84 L320.84 84.96 Z" fill="#f0e7d7" fill-rule="evenodd" stroke="none"/><g stroke="#51493b" fill="none" stroke-linecap="round" stroke-linejoin="round"><g stroke-width="2"><path d="M9 227 L9 70.8 L335 70.8 L335 227 Z"/><path d="M172 36.7952 L172 70.8"/></g><g stroke-width="1.8"><path d="M9 70.8 C9 44.596 111.5957 34.4056 130.5487 34.4056 C146.2527 34.4056 156 40.9566 156 50.4191 C156 59.1538 146.7942 64.6129 137.0469 64.6129 C128.3827 64.6129 122.9675 60.6096 122.9675 56.2422 C122.9675 52.2388 127.2996 49.6912 132.1733 49.6912 C136.5054 49.6912 139.213 51.8749 139.213 54.0586"/><path d="M335 70.8 C335 44.596 232.4043 34.4056 213.4513 34.4056 C197.7473 34.4056 188 40.9566 188 50.4191 C188 59.1538 197.2058 64.6129 206.9531 64.6129 C215.6173 64.6129 221.0325 60.6096 221.0325 56.2422 C221.0325 52.2388 216.7004 49.6912 211.8267 49.6912 C207.4946 49.6912 204.787 51.8749 204.787 54.0586"/></g><g stroke-width="1.2"><path d="M14.0976 70.8 L14.0976 227"/><path d="M329.9024 70.8 L329.9024 227"/><path d="M9 220 L335 220"/><path d="M168 40.7952 L176 40.7952"/><path d="M44.28 70.8 C44.28 65.3117 49.5869 60.2456 59.9058 60.2456 C68.4557 60.2456 73.7626 62.1454 73.7626 64.8895 C73.7626 67.4226 68.7505 69.0058 63.4437 69.0058 C58.7265 69.0058 55.7782 67.8448 55.7782 66.5782"/><path d="M299.72 70.8 C299.72 65.3117 294.4131 60.2456 284.0942 60.2456 C275.5443 60.2456 270.2374 62.1454 270.2374 64.8895 C270.2374 67.4226 275.2495 69.0058 280.5563 69.0058 C285.2735 69.0058 288.2218 67.8448 288.2218 66.5782"/></g><g stroke-width="0.8" fill="#51493b"><path d="M9 113.036 L16.0976 113.036 L16.0976 116.036 L9 116.036 Z"/><path d="M335 113.036 L327.9024 113.036 L327.9024 116.036 L335 116.036 Z"/><path d="M9 181.764 L16.0976 181.764 L16.0976 184.764 L9 184.764 Z"/><path d="M335 181.764 L327.9024 181.764 L327.9024 184.764 L335 184.764 Z"/><path d="M172 20.6387 L175.5544 30.0095 L172 36.7952 L168.4456 30.0095 Z"/></g></g></svg>
