<svg xmlns="http://www.w3.org/2000/svg" width="368" height="298" viewBox="0 0 368 298" role="img" aria-labelledby="title description" font-family="Arial, Helvetica, sans-serif">
<title id="title">Belle Époque — volute</title>
<desc id="description">An illustrative collection card with an unmodified generation 3 volute frame from card-gate-frame.</desc>
<metadata>{&quot;dimensions&quot;:{&quot;width&quot;:344,&quot;height&quot;:236},&quot;options&quot;:{&quot;generationVersion&quot;:3,&quot;seed&quot;:&quot;readme-volute&quot;,&quot;family&quot;:&quot;volute&quot;,&quot;density&quot;:0.72,&quot;curvature&quot;:0.9,&quot;symmetry&quot;:1,&quot;peakHeight&quot;:0.62,&quot;sideComplexity&quot;:0.8},&quot;paint&quot;:{&quot;stroke&quot;:&quot;#d9b093&quot;,&quot;surface&quot;:&quot;#5b303c&quot;}}</metadata>
<g data-example="volute">
<rect width="368" height="298" rx="4" fill="#4a2431"/>
<g transform="translate(12 16)" data-safe="{&quot;left&quot;:23.16,&quot;top&quot;:84.96,&quot;right&quot;:320.84,&quot;bottom&quot;:212.84}">
<svg xmlns="http://www.w3.org/2000/svg" width="344" height="236" viewBox="0 0 344 236" data-gate-frame-generation-version="3"><path d="M9 70.8 L335 70.8 L335 227 L9 227 Z M23.16 84.96 L23.16 212.84 L320.84 212.84 L320.84 84.96 Z" fill="#5b303c" fill-rule="evenodd" stroke="none"/><g stroke="#d9b093" fill="none" stroke-linecap="round" stroke-linejoin="round"><g stroke-width="2"><path d="M9 227 L9 70.8 L335 70.8 L335 227 Z"/><path d="M172 70.8 L172 66.8"/></g><g stroke-width="1.8"><path d="M9 70.8 C9 32.4635 88.9596 17.5549 112.6328 17.5549 C132.2478 17.5549 144.4226 27.139 144.4226 40.9827 C144.4226 53.7616 132.9242 61.7483 120.7494 61.7483 C109.9273 61.7483 103.1635 55.8914 103.1635 49.502 C103.1635 43.645 108.5746 39.9178 114.662 39.9178 C120.073 39.9178 123.4549 43.1126 123.4549 46.3073"/><path d="M335 70.8 C335 32.4635 255.0404 17.5549 231.3672 17.5549 C211.7522 17.5549 199.5774 27.139 199.5774 40.9827 C199.5774 53.7616 211.0758 61.7483 223.2506 61.7483 C234.0727 61.7483 240.8365 55.8914 240.8365 49.502 C240.8365 43.645 235.4254 39.9178 229.338 39.9178 C223.927 39.9178 220.5451 43.1126 220.5451 46.3073"/></g><g stroke-width="1.2"><path d="M14.0976 70.8 L14.0976 227"/><path d="M329.9024 70.8 L329.9024 227"/><path d="M9 220 L335 220"/><path d="M167.2859 54.3077 C166.5002 49.1222 162.179 42.8367 160.2148 44.8009 C158.2506 46.7651 160.2148 49.1222 162.179 47.158 C161.0005 54.2291 153.5365 49.1222 157.8577 41.6582 C160.6076 37.3369 166.1074 40.0868 169.8394 47.5508 C166.8931 39.3011 166.5002 33.8014 172 27.5159 C177.4998 33.8014 177.1069 39.3011 174.1606 47.5508 C177.8926 40.0868 183.3924 37.3369 186.1423 41.6582 C190.4635 49.1222 182.9995 54.2291 181.821 47.158 C183.7852 49.1222 185.7494 46.7651 183.7852 44.8009 C181.821 42.8367 177.4998 49.1222 176.7141 54.3077 L167.2859 54.3077 Z"/><path d="M169.0537 55.329 C168.8573 59.336 166.5002 60.9074 164.1432 61.3002 C166.5002 64.0501 169.2501 63.2644 170.6251 61.3002 C170.4286 64.0501 170.8215 65.6215 172 66.8 C173.1785 65.6215 173.5714 64.0501 173.3749 61.3002 C174.7499 63.2644 177.4998 64.0501 179.8568 61.3002 C177.4998 60.9074 175.1427 59.336 174.9463 55.329 L169.0537 55.329 Z"/><path d="M41.5014 70.8 C41.5014 60.8325 46.8279 51.6318 57.185 51.6318 C65.7665 51.6318 71.093 55.082 71.093 60.0658 C71.093 64.6662 66.0624 67.5414 60.736 67.5414 C56.0013 67.5414 53.0421 65.4329 53.0421 63.1327"/><path d="M302.4986 70.8 C302.4986 60.8325 297.1721 51.6318 286.815 51.6318 C278.2335 51.6318 272.907 55.082 272.907 60.0658 C272.907 64.6662 277.9376 67.5414 283.264 67.5414 C287.9987 67.5414 290.9579 65.4329 290.9579 63.1327"/></g><g stroke-width="0.8" fill="#d9b093"><path d="M9 100.54 L16.0976 100.54 L16.0976 103.54 L9 103.54 Z"/><path d="M335 100.54 L327.9024 100.54 L327.9024 103.54 L335 103.54 Z"/><path d="M9 147.4 L16.0976 147.4 L16.0976 150.4 L9 150.4 Z"/><path d="M335 147.4 L327.9024 147.4 L327.9024 150.4 L335 150.4 Z"/><path d="M9 194.26 L16.0976 194.26 L16.0976 197.26 L9 197.26 Z"/><path d="M335 194.26 L327.9024 194.26 L327.9024 197.26 L335 197.26 Z"/><path d="M166.8931 54.3077 L177.1069 54.3077 L177.1069 55.329 L166.8931 55.329 Z"/></g></g></svg>
<g data-content="volute" text-anchor="middle">
<text x="172" y="115" font-size="10" fill="#d0b7b4" letter-spacing="1.8">LA COLLECTION PRIVÉE</text>
<text x="172" y="155" font-size="31" fill="#f6eadd" font-family="Georgia, Times New Roman, serif">Belle Époque</text>
<path d="M154 175 H190" stroke="#d9b093" stroke-width="1"/>
<text x="172" y="198" font-size="12" fill="#d0b7b4" >For things worth keeping.</text>
</g>
</g>
<text x="22" y="279" font-size="12" fill="#d0b7b4" letter-spacing="0.5">06 / volute</text>
<text x="346" y="279" font-size="11" fill="#d0b7b4" text-anchor="end">Collection</text>
</g>
</svg>
