<svg xmlns="http://www.w3.org/2000/svg" width="200" height="320" viewBox="0 0 200 320" data-gate-frame-generation-version="1"><path d="M9 88 L191 88 L191 311 L9 311 Z M21 100 L21 299 L179 299 L179 100 Z" fill="#f2eadb" fill-rule="evenodd" stroke="none"/><g stroke="#202427" stroke-width="2" stroke-linecap="round" stroke-linejoin="round"><path d="M9 311 L9 88 L191 88 L191 311 Z" fill="none"/><path d="M21 88 C26.08 67.68 43.1392 57.0404 61.4272 57.0404 C79.7152 57.0404 83.7792 78.856 71.4272 82 C61.4272 85 53.2992 77.84 58.4272 72" fill="none"/><path d="M179 88 C173.92 67.68 156.8608 57.0404 138.5728 57.0404 C120.2848 57.0404 116.2208 78.856 128.5728 82 C138.5728 85 146.7008 77.84 141.5728 72" fill="none"/><path d="M100 88 L100 27 M100 9 L107 21 L100 28 L93 21 Z" fill="none"/></g></svg>